<svg width="118" height="17" viewBox="0 0 118 17" fill="none" xmlns="http://www.w3.org/2000/svg">
<path d="M-0.000195295 16.2478V0.551804C-0.000195295 0.239803 0.239805 -0.000196457 0.551805 -0.000196457H2.8078C3.1198 -0.000196457 3.3598 0.239803 3.3598 0.551804V6.1678C3.3598 6.4798 3.5998 6.7198 3.91181 6.7198H5.9998C6.35981 6.7198 6.69581 6.5758 6.91181 6.2878L11.9998 0.431804C12.2158 0.143805 12.5518 -0.000196457 12.9118 -0.000196457H16.2478C16.3438 -0.000196457 16.4398 0.0478044 16.4638 0.143805C16.5118 0.239803 16.4878 0.335804 16.4398 0.431804L9.91181 7.9678C9.69581 8.2078 9.69581 8.5918 9.91181 8.8318L16.4398 16.3678C16.4878 16.4638 16.5118 16.5598 16.4638 16.6558C16.4398 16.7518 16.3438 16.7998 16.2478 16.7998H12.9118C12.5518 16.7998 12.2158 16.6558 11.9998 16.3678L6.91181 10.5118C6.69581 10.2238 6.35981 10.0798 5.9998 10.0798H3.91181C3.5998 10.0798 3.3598 10.3198 3.3598 10.6318V16.2478C3.3598 16.5598 3.1198 16.7998 2.8078 16.7998H0.551805C0.239805 16.7998 -0.000195295 16.5598 -0.000195295 16.2478ZM17.4842 13.4398V3.3598C17.4842 1.5118 18.9962 -0.000196457 20.8442 -0.000196457H30.9242C32.7722 -0.000196457 34.2842 1.5118 34.2842 3.3598V13.4398C34.2842 15.2878 32.7722 16.7998 30.9242 16.7998H20.8442C18.9962 16.7998 17.4842 15.2878 17.4842 13.4398ZM21.3962 13.4398H30.3722C30.6842 13.4398 30.9242 13.1998 30.9242 12.8878V3.9118C30.9242 3.5998 30.6842 3.3598 30.3722 3.3598H21.3962C21.0842 3.3598 20.8442 3.5998 20.8442 3.9118V12.8878C20.8442 13.1998 21.0842 13.4398 21.3962 13.4398ZM53.5035 16.2478C53.5035 16.5598 53.2635 16.7998 52.9515 16.7998H37.2555C36.9435 16.7998 36.7035 16.5598 36.7035 16.2478V13.9918C36.7035 13.6558 36.8475 13.2958 37.1355 13.0798L47.9355 3.7198C47.9835 3.6958 48.0075 3.6238 48.0075 3.5758C48.0075 3.5518 48.0075 3.5278 48.0075 3.5038C47.9595 3.4078 47.8875 3.3598 47.8155 3.3598H37.2555C36.9435 3.3598 36.7035 3.1198 36.7035 2.8078V0.551804C36.7035 0.239803 36.9435 -0.000196457 37.2555 -0.000196457H52.9515C53.2635 -0.000196457 53.5035 0.239803 53.5035 0.551804V2.8078C53.5035 3.1438 53.3595 3.5038 53.0715 3.7198L42.2715 13.0798C42.2235 13.1038 42.1995 13.1758 42.1995 13.2238C42.1995 13.2478 42.1995 13.2718 42.1995 13.2958C42.2475 13.3918 42.3195 13.4398 42.3915 13.4398H52.9515C53.2635 13.4398 53.5035 13.6798 53.5035 13.9918V16.2478ZM55.8982 0.551804C55.8982 0.239803 56.1382 -0.000196457 56.4502 -0.000196457H58.7062C59.0662 -0.000196457 59.4022 0.143805 59.6182 0.431804L67.6582 9.7198C70.3222 6.6238 73.0102 3.5278 75.6982 0.431804C75.8902 0.191804 76.2982 -0.000196457 76.6102 -0.000196457H78.8662C79.1782 -0.000196457 79.4182 0.239803 79.4182 0.551804V16.2478C79.4182 16.5598 79.1542 16.7998 78.8662 16.7998H76.6102C76.2982 16.7998 76.0582 16.5598 76.0582 16.2478V5.6878C76.0582 5.3998 75.8902 5.3278 75.6982 5.5678C73.1302 8.5198 70.5862 11.4718 68.0182 14.4478C67.9222 14.5438 67.8022 14.6158 67.6582 14.6158C67.5382 14.6158 67.3942 14.5438 67.2982 14.4478C64.7302 11.4718 62.1862 8.5198 59.6182 5.5678C59.4262 5.3278 59.2582 5.3998 59.2582 5.7118V16.2478C59.2582 16.5598 59.0182 16.7998 58.7062 16.7998H56.4742C56.1622 16.7998 55.8982 16.5598 55.8982 16.2478V0.551804ZM94.7081 3.3598H85.7321C85.4201 3.3598 85.1801 3.5998 85.1801 3.9118V9.5278C85.1801 9.8398 85.4201 10.0798 85.7321 10.0798H94.7081C95.0201 10.0798 95.2601 9.8398 95.2601 9.5278V3.9118C95.2601 3.5998 95.0201 3.3598 94.7081 3.3598ZM81.8201 16.2478V3.3598C81.8201 1.5118 83.3321 -0.000196457 85.1801 -0.000196457H95.2601C97.1081 -0.000196457 98.6201 1.5118 98.6201 3.3598V16.2478C98.6201 16.5598 98.3801 16.7998 98.0681 16.7998H95.8121C95.5001 16.7998 95.2601 16.5598 95.2601 16.2478V13.9918C95.2601 13.6798 95.0201 13.4398 94.7081 13.4398H85.7321C85.4201 13.4398 85.1801 13.6798 85.1801 13.9918V16.2478C85.1801 16.5598 84.9401 16.7998 84.6281 16.7998H82.3721C82.0601 16.7998 81.8201 16.5598 81.8201 16.2478ZM113.903 3.3598H104.927C104.615 3.3598 104.375 3.5998 104.375 3.9118V9.5278C104.375 9.8398 104.615 10.0798 104.927 10.0798H113.903C114.215 10.0798 114.455 9.8398 114.455 9.5278V3.9118C114.455 3.5998 114.215 3.3598 113.903 3.3598ZM101.015 16.2478V3.3598C101.015 1.5118 102.527 -0.000196457 104.375 -0.000196457H114.455C116.303 -0.000196457 117.815 1.5118 117.815 3.3598V10.0798C117.815 11.9278 116.303 13.4398 114.455 13.4398H104.927C104.615 13.4398 104.375 13.6798 104.375 13.9918V16.2478C104.375 16.5598 104.135 16.7998 103.823 16.7998H101.567C101.255 16.7998 101.015 16.5598 101.015 16.2478Z" fill="white"/>
</svg>
