<svg width="1180" height="167" viewBox="0 0 1180 167" fill="none" xmlns="http://www.w3.org/2000/svg">
<path d="M0 161.513V5.48714C0 2.38571 2.40376 0 5.52864 0H28.1239C31.2488 0 33.6526 2.38571 33.6526 5.48714V61.3129C33.6526 64.4143 36.0563 66.8 39.1812 66.8H60.0939C63.6995 66.8 67.0648 65.3686 69.2282 62.5057L120.188 4.29429C122.351 1.43144 125.716 0 129.322 0H162.734C163.696 0 164.657 0.477151 164.898 1.43144C165.378 2.38571 165.138 3.34 164.657 4.29429L99.2751 79.2057C97.1117 81.5914 97.1117 85.4086 99.2751 87.7943L164.657 162.706C165.138 163.66 165.378 164.614 164.898 165.569C164.657 166.523 163.696 167 162.734 167H129.322C125.716 167 122.351 165.569 120.188 162.706L69.2282 104.494C67.0648 101.631 63.6995 100.2 60.0939 100.2H39.1812C36.0563 100.2 33.6526 102.586 33.6526 105.687V161.513C33.6526 164.614 31.2488 167 28.1239 167H5.52864C2.40376 167 0 164.614 0 161.513Z" fill="white"/>
<path d="M175.117 133.6V33.4C175.117 15.03 190.261 0 208.77 0H309.728C328.237 0 343.38 15.03 343.38 33.4V133.6C343.38 151.97 328.237 167 309.728 167H208.77C190.261 167 175.117 151.97 175.117 133.6ZM214.299 133.6H304.199C307.324 133.6 309.728 131.214 309.728 128.113V38.8871C309.728 35.7857 307.324 33.4 304.199 33.4H214.299C211.174 33.4 208.77 35.7857 208.77 38.8871V128.113C208.77 131.214 211.174 133.6 214.299 133.6Z" fill="white"/>
<path d="M535.874 161.513C535.874 164.614 533.47 167 530.346 167H373.14C370.015 167 367.611 164.614 367.611 161.513V139.087C367.611 135.747 369.053 132.169 371.938 130.021L480.107 36.9786C480.588 36.74 480.828 36.0243 480.828 35.5472C480.828 35.3086 480.828 35.07 480.828 34.8314C480.347 33.8771 479.626 33.4 478.905 33.4H373.14C370.015 33.4 367.611 31.0143 367.611 27.9129V5.48714C367.611 2.38571 370.015 0 373.14 0H530.346C533.47 0 535.874 2.38571 535.874 5.48714V27.9129C535.874 31.2529 534.432 34.8314 531.547 36.9786L423.378 130.021C422.898 130.26 422.657 130.976 422.657 131.453C422.657 131.691 422.657 131.93 422.657 132.169C423.138 133.123 423.859 133.6 424.58 133.6H530.346C533.47 133.6 535.874 135.986 535.874 139.087V161.513Z" fill="white"/>
<path d="M559.859 5.48714C559.859 2.38571 562.263 0 565.388 0H587.983C591.589 0 594.954 1.43144 597.117 4.29429L677.643 96.6214C704.325 65.8457 731.247 35.07 758.169 4.29429C760.092 1.90858 764.178 0 767.303 0H789.899C793.023 0 795.427 2.38571 795.427 5.48714V161.513C795.427 164.614 792.783 167 789.899 167H767.303C764.178 167 761.775 164.614 761.775 161.513V56.5414C761.775 53.6786 760.092 52.9629 758.169 55.3486C732.449 84.6929 706.969 114.037 681.249 143.62C680.287 144.574 679.085 145.29 677.643 145.29C676.441 145.29 674.999 144.574 674.038 143.62C648.317 114.037 622.838 84.6929 597.117 55.3486C595.194 52.9629 593.512 53.6786 593.512 56.78V161.513C593.512 164.614 591.108 167 587.983 167H565.628C562.503 167 559.859 164.614 559.859 161.513V5.48714Z" fill="white"/>
<path d="M948.565 33.4H858.665C855.54 33.4 853.136 35.7857 853.136 38.8871V94.7129C853.136 97.8143 855.54 100.2 858.665 100.2H948.565C951.69 100.2 954.094 97.8143 954.094 94.7129V38.8871C954.094 35.7857 951.69 33.4 948.565 33.4ZM819.484 161.513V33.4C819.484 15.03 834.627 0 853.136 0H954.094C972.603 0 987.746 15.03 987.746 33.4V161.513C987.746 164.614 985.343 167 982.218 167H959.622C956.498 167 954.094 164.614 954.094 161.513V139.087C954.094 135.986 951.69 133.6 948.565 133.6H858.665C855.54 133.6 853.136 135.986 853.136 139.087V161.513C853.136 164.614 850.732 167 847.607 167H825.012C821.887 167 819.484 164.614 819.484 161.513Z" fill="white"/>
<path d="M1140.82 33.4H1050.92C1047.79 33.4 1045.39 35.7857 1045.39 38.8871V94.7129C1045.39 97.8143 1047.79 100.2 1050.92 100.2H1140.82C1143.94 100.2 1146.35 97.8143 1146.35 94.7129V38.8871C1146.35 35.7857 1143.94 33.4 1140.82 33.4ZM1011.74 161.513V33.4C1011.74 15.03 1026.88 0 1045.39 0H1146.35C1164.86 0 1180 15.03 1180 33.4V100.2C1180 118.57 1164.86 133.6 1146.35 133.6H1050.92C1047.79 133.6 1045.39 135.986 1045.39 139.087V161.513C1045.39 164.614 1042.99 167 1039.86 167H1017.27C1014.14 167 1011.74 164.614 1011.74 161.513Z" fill="white"/>
</svg>
