<svg width="24" height="24" viewBox="0 0 24 24" fill="none" xmlns="http://www.w3.org/2000/svg">
<path d="M12.0319 0C9.52383 5.63746 5.45357 4.24421 4.8944 1.93954C1.93204 4.16531 1.46479e-09 7.74571 1.46479e-09 11.7794C-0.000102467 18.5249 5.3759 24 11.9999 24C18.624 24 24 18.5249 24 11.7794C24 7.77766 22.0903 4.23283 19.1679 2.00338C18.5905 4.21037 15.1579 5.54423 12.0319 0ZM5.80853 6.17247C6.29669 6.16712 6.8409 6.2786 7.37117 6.51348C8.67662 7.09182 9.39994 8.20665 8.98505 9.00387C8.57031 9.80109 7.17494 9.97888 5.86949 9.40064C4.56405 8.82235 3.84231 7.70589 4.25715 6.90868C4.50349 6.43531 5.09524 6.18044 5.80853 6.17247ZM18.5643 6.2349C19.3281 6.2157 19.9702 6.47266 20.2294 6.97095C20.6443 7.76817 19.921 8.883 18.6155 9.46134C17.3101 10.0395 15.9163 9.86174 15.5015 9.06452C15.0866 8.2673 15.8083 7.15247 17.1138 6.57412C17.6033 6.35735 18.1061 6.24628 18.5643 6.2349ZM6.68279 11.1056L9.41101 15.7306L12.2033 11.6647L14.2751 15.8911L17.6261 11.1728L19.4097 14.8058L23.169 11.5089C23.1071 14.4585 21.2093 18.5198 18.8766 20.1832L17.6806 16.6142L14.805 21.503L11.912 16.7994L8.32079 21.185L5.59257 16.3731L4.70074 19.7488C2.32516 17.6408 1.16507 14.5051 1.27281 11.4286L4.0475 15.0058L6.68279 11.1056Z" fill="#FF930D"/>
</svg>
