<svg width="385" height="178" viewBox="0 0 385 178" fill="none" xmlns="http://www.w3.org/2000/svg">
<g style="mix-blend-mode:soft-light">
<path d="M291.156 -80.6436H286.344C269.27 -80.3074 252.924 -74.4033 240.383 -64.0435C227.669 -74.4197 211.172 -80.3183 193.958 -80.6436H191.042C173.828 -80.3183 157.331 -74.4196 144.617 -64.0435C132.076 -74.4033 115.73 -80.3074 98.6562 -80.6436H93.8438C42.0154 -80.6436 0 -22.8752 0 48.3862C0 119.648 42.0154 177.416 93.8438 177.416H98.6562C115.73 177.08 132.076 171.176 144.617 160.816C157.331 171.192 173.828 177.091 191.042 177.416H193.958C211.172 177.091 227.669 171.192 240.383 160.816C252.924 171.176 269.27 177.08 286.344 177.416H291.156C342.985 177.416 385 119.648 385 48.3862C385 -22.8752 342.985 -80.6436 291.156 -80.6436ZM192.5 22.5802L221.375 56.9881H163.625L192.5 22.5802ZM77 -29.0317L154 22.5802H57.75L77 -29.0317ZM252.384 122.839L192.5 104.996L132.616 122.839L68.992 84.9274L85.008 63.4568L136.883 94.3618L192.5 77.7958L248.116 94.3613L299.992 63.4568L316.008 84.9274L252.384 122.839ZM231 22.5802L308 -29.0317L327.25 22.5802H231Z" fill="white"/>
</g>
</svg>
