<svg width="16" height="15" viewBox="0 0 16 15" fill="none" xmlns="http://www.w3.org/2000/svg">
<g clip-path="url(#clip0_882_2684)">
<path fill-rule="evenodd" clip-rule="evenodd" d="M14.3419 2.08387C15.2079 1.76377 16.1363 2.40662 15.9834 3.22051L14.1773 12.8337C14.0031 13.7606 12.8435 14.2924 11.8749 13.8305C11.0643 13.444 9.86173 12.8491 8.7779 12.2274C8.2367 11.9169 6.57951 10.9214 6.7832 10.2128C6.95737 9.60685 9.74328 7.33023 11.3353 5.9763C11.9606 5.44447 11.6758 5.13723 10.9373 5.6269C9.10521 6.84163 6.16385 8.68849 5.19118 9.20826C4.33299 9.66681 3.8849 9.74507 3.35043 9.66681C2.37443 9.52404 1.46956 9.30294 0.730814 9.03411C-0.267662 8.67074 -0.219027 7.46615 0.730138 7.11535L14.3419 2.08387Z" fill="white"/>
</g>
<defs>
<clipPath id="clip0_882_2684">
<rect width="16" height="15" fill="white"/>
</clipPath>
</defs>
</svg>
